<?xml version="1.0" standalone="no"?>
<!DOCTYPE svg PUBLIC "-//W3C//DTD SVG 20010904//EN"
 "http://www.w3.org/TR/2001/REC-SVG-20010904/DTD/svg10.dtd">
<svg version="1.0" xmlns="http://www.w3.org/2000/svg"
 width="2172.000000pt" height="2172.000000pt" viewBox="0 0 2172.000000 2172.000000"
 preserveAspectRatio="xMidYMid meet">
<metadata>
Created by potrace 1.11, written by Peter Selinger 2001-2013
</metadata>
<g transform="translate(0.000000,2172.000000) scale(0.100000,-0.100000)"
fill="#000000" stroke="none">
<path d="M4464 14264 c-3 -13 -9 -24 -13 -24 -4 0 -8 -6 -8 -12 0 -7 -27 -85
-61 -173 -33 -88 -62 -167 -64 -175 -2 -8 -5 -17 -8 -20 -3 -3 -16 -36 -29
-75 -13 -38 -28 -75 -32 -81 -5 -6 -10 -19 -12 -30 -2 -10 -9 -30 -14 -44 -12
-28 -39 -100 -148 -390 -43 -113 -93 -245 -111 -295 -19 -49 -43 -112 -53
-140 -10 -27 -22 -59 -27 -70 -4 -11 -8 -22 -9 -25 -1 -3 -5 -12 -8 -20 -3 -8
-31 -82 -62 -165 -31 -82 -59 -157 -62 -165 -3 -8 -7 -17 -8 -20 -3 -9 -16
-43 -46 -120 -16 -41 -29 -78 -29 -81 0 -4 -8 -24 -17 -45 -9 -22 -17 -41 -18
-44 0 -6 -12 -36 -46 -125 -13 -33 -24 -62 -25 -65 0 -3 -5 -16 -11 -30 -6
-14 -12 -29 -13 -35 -3 -14 -39 -106 -50 -130 -5 -11 -19 -47 -31 -80 -12 -33
-37 -100 -56 -150 -19 -49 -36 -94 -38 -100 -1 -5 -5 -17 -8 -25 -10 -22 -73
-191 -113 -300 -33 -93 -47 -127 -65 -162 -5 -10 -9 -27 -9 -37 0 -11 -5 -23
-10 -26 -6 -4 -8 -11 -5 -16 4 -5 1 -9 -4 -9 -6 0 -11 -6 -11 -13 0 -8 -20
-68 -45 -133 -25 -65 -54 -141 -65 -169 -76 -207 -162 -433 -169 -450 -23 -51
-54 -139 -54 -151 0 -8 -3 -14 -7 -14 -4 0 -13 -19 -19 -42 -7 -24 -29 -83
-48 -133 -19 -49 -51 -133 -70 -185 -50 -133 -49 -132 -63 -165 -7 -16 -23
-61 -37 -100 -14 -38 -31 -83 -38 -100 -7 -16 -39 -100 -70 -185 -31 -85 -64
-168 -73 -185 -9 -16 -15 -31 -13 -33 4 -4 -31 -95 -42 -109 -7 -10 -61 -13
-209 -13 l-200 0 68 47 c61 41 136 104 168 140 6 7 24 27 39 43 72 79 227 358
227 411 0 9 3 19 7 23 4 3 8 12 10 19 1 7 12 48 23 92 12 44 23 89 25 100 1
11 6 38 10 60 3 22 8 51 11 65 3 14 7 48 9 75 3 28 8 70 12 95 4 25 7 1017 8
2205 l1 2160 75 2 c112 3 241 4 374 2 28 0 86 0 130 1 85 1 120 1 228 -1 37
-1 71 1 74 5 8 8 11 106 4 107 -38 4 -2563 0 -2568 -5 -3 -3 -7 -26 -8 -51 -2
-59 -4 -58 195 -54 8 0 62 0 120 0 58 -1 125 -1 150 -1 25 0 74 0 110 -1 36 0
88 0 115 0 28 0 84 -1 125 -2 l75 -2 -1 -2465 c0 -2191 -3 -2582 -19 -2640 -2
-8 -6 -26 -9 -40 -7 -42 -26 -106 -42 -147 -9 -21 -16 -40 -16 -43 0 -3 -13
-23 -28 -45 -101 -145 -245 -215 -430 -209 -260 8 -381 121 -373 346 3 108 13
150 68 299 61 164 74 217 71 297 -6 141 -74 243 -203 308 l-78 39 -125 0 c-76
0 -145 -5 -175 -14 -179 -49 -298 -173 -346 -361 -14 -54 -19 -221 -8 -270 4
-19 10 -49 14 -67 22 -130 134 -297 281 -423 131 -113 384 -218 589 -245 28
-4 64 -9 80 -13 60 -11 500 -4 500 8 0 1 15 4 32 6 18 3 56 11 84 18 41 11
220 14 853 14 440 1 819 1 842 1 l41 1 -1 53 -1 52 -435 5 -436 5 72 190 c75
198 86 227 89 235 1 3 5 14 10 25 4 11 21 56 38 100 30 83 73 195 87 230 5 11
22 56 38 100 16 44 33 89 37 100 5 11 9 22 10 25 3 8 16 41 51 133 19 48 34
94 34 102 0 8 4 15 10 15 5 0 9 3 8 8 -2 4 2 21 9 37 21 55 67 180 69 185 0 3
6 18 12 33 7 15 15 39 18 53 3 13 10 27 15 30 5 3 9 12 9 21 0 8 6 29 14 46
17 38 84 219 86 232 1 3 8 22 17 42 31 76 36 88 38 98 3 10 48 128 65 170 5
11 20 52 34 90 14 39 31 84 37 100 7 17 13 32 14 35 1 3 4 12 8 20 3 8 29 78
58 155 28 77 56 151 62 165 6 14 11 30 13 35 4 18 104 279 114 300 5 11 30 76
55 145 25 69 50 134 55 145 5 11 20 52 34 90 14 39 62 167 107 285 45 118 88
233 96 255 8 22 25 67 38 100 13 33 51 134 85 225 34 91 64 172 67 180 3 8 7
17 8 20 1 3 6 16 12 30 6 14 12 31 15 39 2 9 9 1 17 -20 7 -19 17 -43 21 -54
5 -11 24 -60 43 -110 19 -49 55 -144 80 -210 25 -66 64 -169 87 -230 23 -60
46 -120 51 -132 20 -50 29 -72 67 -173 22 -58 63 -166 92 -240 29 -74 53 -139
55 -145 1 -5 7 -23 14 -40 7 -16 24 -59 37 -95 14 -36 31 -81 39 -100 8 -19
25 -64 38 -100 14 -36 43 -112 65 -170 23 -58 59 -154 82 -215 23 -60 45 -119
50 -130 16 -38 62 -160 116 -305 54 -143 68 -178 85 -212 5 -10 9 -26 9 -36 0
-10 4 -22 9 -27 5 -6 19 -39 32 -75 12 -36 26 -69 29 -75 4 -5 11 -21 15 -35
5 -21 25 -74 65 -175 9 -21 22 -57 25 -65 1 -3 7 -18 14 -35 6 -16 16 -43 22
-60 6 -16 20 -49 30 -72 11 -24 19 -47 19 -52 0 -7 26 -78 51 -136 4 -11 20
-51 34 -90 28 -73 71 -185 86 -220 4 -11 40 -105 79 -208 39 -104 76 -200 82
-215 18 -45 25 -63 58 -152 18 -47 36 -94 40 -105 16 -40 40 -106 40 -110 0
-3 -199 -5 -443 -5 l-442 0 -1 -55 c0 -55 0 -55 31 -56 179 -4 3907 0 3912 5
8 8 10 97 1 102 -4 2 -204 4 -445 4 l-439 0 0 1383 1 1382 385 2 c212 0 410
-3 440 -8 30 -6 64 -11 75 -13 81 -12 241 -82 308 -134 27 -22 147 -141 168
-168 28 -35 103 -176 131 -244 37 -91 69 -188 93 -290 2 -8 11 -42 20 -75 16
-59 21 -78 29 -113 2 -9 8 -35 14 -57 5 -22 13 -52 16 -67 6 -25 10 -28 51
-28 l45 0 0 1243 0 1243 -44 3 -44 2 -12 -53 c-12 -50 -85 -306 -96 -338 -3
-8 -5 -17 -6 -20 -1 -11 -75 -205 -96 -250 -9 -19 -20 -38 -25 -41 -5 -3 -8
-9 -7 -13 2 -4 -19 -42 -46 -84 -41 -65 -154 -191 -205 -227 -70 -51 -208
-106 -299 -120 -25 -4 -54 -9 -65 -12 -61 -13 -195 -17 -495 -18 l-335 0 -1
1292 c0 901 3 1293 10 1296 17 6 1474 -1 1536 -7 30 -2 64 -7 75 -9 11 -3 43
-8 70 -11 28 -4 68 -12 90 -18 22 -6 46 -13 53 -14 8 -1 21 -6 30 -10 9 -4 22
-8 27 -9 20 -5 120 -49 165 -73 211 -115 398 -324 530 -593 28 -57 55 -112 61
-121 5 -10 9 -25 9 -33 0 -8 5 -15 10 -15 6 0 10 -7 10 -15 0 -8 9 -34 19 -57
23 -50 83 -207 85 -225 1 -7 5 -16 9 -19 4 -4 7 -15 7 -24 0 -14 9 -17 45 -16
25 0 46 5 46 11 1 5 2 291 3 635 l1 625 410 1 c226 0 415 -2 422 -4 9 -3 11
-659 11 -2738 l1 -2734 -446 0 -445 0 4 -25 c3 -14 2 -28 -2 -30 -5 -3 -5 -17
-1 -32 l7 -26 1259 1 c693 0 1272 1 1286 1 24 1 26 4 28 56 l2 56 -203 -1
c-112 0 -312 0 -445 0 l-243 -1 0 1447 0 1446 523 -5 c287 -3 536 -8 552 -11
17 -3 46 -7 65 -10 208 -27 415 -144 540 -306 14 -18 31 -38 38 -45 6 -8 12
-16 12 -19 0 -3 16 -30 35 -60 19 -30 35 -58 35 -61 0 -4 11 -30 24 -59 21
-45 42 -109 52 -151 1 -5 6 -28 12 -50 6 -22 13 -56 16 -75 3 -19 8 -46 10
-60 10 -57 17 -107 21 -169 3 -36 7 -95 10 -131 15 -180 14 -173 30 -386 8
-116 17 -199 21 -206 2 -3 0 -9 -6 -13 -6 -4 -7 -12 -3 -18 9 -14 9 -13 17
-102 3 -39 9 -84 11 -100 3 -17 7 -43 10 -60 2 -16 7 -48 11 -69 9 -63 50
-241 61 -266 3 -8 7 -19 8 -25 2 -5 19 -45 39 -88 126 -273 337 -428 686 -503
19 -4 463 -9 987 -11 l951 -3 4 51 c1 28 1 54 -2 58 -3 3 -199 6 -437 6 -382
-1 -431 1 -428 15 2 8 22 62 45 120 23 58 43 110 44 115 2 6 9 24 16 40 7 17
14 36 16 42 5 25 37 108 46 118 4 5 8 16 8 25 0 8 6 27 14 42 11 21 35 84 41
108 1 3 5 14 10 25 27 71 59 154 93 245 61 163 143 380 162 430 10 25 27 72
39 105 13 33 25 67 28 75 4 8 7 17 7 20 1 3 4 10 7 15 5 8 30 76 34 95 1 3 7
19 14 35 7 17 32 82 56 145 88 235 186 495 192 510 3 8 7 17 8 20 1 3 5 14 10
25 35 88 75 199 75 211 0 8 4 14 8 14 5 0 9 6 9 13 1 10 116 322 140 377 3 8
7 17 8 20 1 3 4 12 8 20 31 80 69 190 67 196 -1 4 2 10 7 13 4 3 14 24 21 46
8 22 19 54 26 70 7 17 29 73 49 125 36 97 157 420 273 730 36 96 70 184 75
195 13 31 51 129 54 140 1 6 7 24 14 40 6 17 14 37 17 45 4 9 17 -13 33 -55
15 -38 32 -79 36 -90 5 -11 9 -22 10 -25 7 -27 19 -61 32 -88 8 -19 27 -68 43
-110 72 -197 165 -437 170 -442 3 -3 6 -12 8 -20 2 -8 15 -44 29 -80 37 -97
67 -175 103 -270 17 -47 38 -99 46 -117 8 -17 14 -34 14 -37 0 -3 15 -45 34
-94 19 -48 69 -177 111 -287 41 -110 79 -207 82 -215 3 -8 7 -17 7 -20 1 -7
76 -201 87 -225 8 -19 97 -253 204 -535 25 -69 51 -134 56 -145 5 -11 20 -51
35 -90 14 -38 36 -98 50 -133 13 -34 35 -91 49 -127 14 -36 36 -93 49 -127 23
-60 80 -208 133 -348 13 -36 35 -92 48 -125 13 -33 38 -98 55 -145 18 -47 35
-94 40 -105 16 -42 40 -102 64 -165 13 -36 43 -114 67 -175 23 -60 52 -137 65
-171 l22 -60 -441 0 -442 1 -3 -58 -3 -57 1235 0 c1165 0 1235 1 1240 18 2 9
3 35 2 57 l-2 39 -355 1 c-195 0 -360 4 -366 8 -7 5 -13 14 -13 20 0 10 -33
102 -70 192 -15 37 -88 228 -145 380 -31 83 -60 159 -65 170 -8 19 -14 38 -20
60 -2 6 -18 46 -36 90 -19 44 -34 83 -34 88 0 5 -6 23 -14 40 -16 35 -53 130
-87 222 -12 33 -26 71 -32 85 -6 14 -11 30 -12 35 -2 6 -13 35 -25 65 -34 84
-37 91 -60 155 -12 33 -26 69 -30 80 -5 11 -23 58 -40 105 -18 47 -36 94 -41
105 -11 25 -97 250 -111 290 -5 17 -25 68 -43 115 -18 47 -48 123 -66 170 -17
47 -40 105 -49 130 -10 25 -45 117 -78 205 -33 88 -66 174 -72 190 -7 17 -16
39 -21 50 -7 18 -153 404 -281 740 -27 72 -53 139 -57 150 -5 11 -14 36 -21
55 -7 19 -18 49 -25 65 -8 17 -17 42 -20 58 -4 15 -11 30 -16 33 -5 3 -9 13
-9 23 0 10 -6 31 -14 47 -8 16 -43 106 -79 199 -35 94 -81 215 -102 270 -85
225 -107 282 -123 320 -9 21 -17 42 -17 45 0 5 -35 97 -55 145 -5 11 -23 58
-40 105 -17 47 -38 99 -46 117 -8 17 -14 34 -14 37 0 5 -28 80 -75 201 -5 11
-7 26 -6 33 1 6 -8 12 -21 13 -33 1 -117 1 -158 0 l-35 -1 -70 -187 c-38 -104
-72 -192 -76 -198 -3 -5 -12 -28 -19 -50 -7 -22 -18 -53 -25 -70 -7 -16 -35
-91 -63 -165 -61 -165 -161 -426 -175 -460 -5 -14 -11 -31 -13 -38 -2 -12 -26
-76 -67 -177 -10 -27 -20 -54 -22 -60 -1 -5 -8 -23 -14 -40 -13 -31 -23 -57
-110 -290 -28 -77 -57 -151 -63 -165 -6 -14 -12 -29 -13 -35 -3 -10 -108 -289
-125 -330 -4 -11 -13 -36 -20 -55 -7 -19 -18 -48 -25 -65 -7 -16 -20 -52 -29
-78 -9 -27 -23 -62 -31 -78 -9 -16 -15 -30 -15 -31 2 -5 -10 -37 -62 -173 -28
-71 -51 -134 -52 -140 -2 -5 -6 -17 -9 -25 -3 -8 -38 -100 -77 -205 -92 -246
-111 -296 -121 -320 -5 -11 -20 -49 -33 -85 -28 -78 -132 -354 -216 -575 -33
-88 -83 -221 -110 -295 -28 -74 -54 -144 -59 -155 -12 -25 -92 -236 -96 -250
-1 -5 -5 -17 -8 -25 -13 -29 -169 -445 -171 -455 -1 -5 -10 -27 -19 -49 -9
-21 -17 -41 -17 -44 0 -3 -13 -40 -29 -81 -28 -71 -42 -109 -46 -121 -1 -3 -9
-22 -18 -44 -9 -21 -17 -44 -17 -52 0 -37 -22 -40 -246 -39 -121 1 -235 5
-254 9 -64 14 -164 70 -215 121 -34 34 -65 81 -97 147 -27 53 -48 103 -48 110
0 8 -4 18 -9 23 -14 16 -55 176 -66 262 -3 26 -9 64 -11 83 -5 34 -8 73 -18
255 -3 50 -8 131 -11 180 -3 50 -8 126 -10 170 -6 108 -14 222 -20 270 -2 22
-7 72 -10 110 -4 39 -8 81 -11 95 -2 14 -7 41 -10 60 -27 169 -92 349 -168
469 -70 109 -196 229 -346 327 -161 106 -433 224 -574 250 -16 3 -33 7 -37 10
-8 4 -44 12 -94 19 -11 1 -27 5 -35 8 -8 3 -37 9 -65 13 -27 4 -57 9 -65 11
-8 2 -32 6 -53 9 -21 3 -46 7 -55 9 -9 2 -23 4 -29 4 -7 1 -13 5 -13 10 0 4
26 11 58 14 31 4 68 9 82 12 14 3 41 8 60 11 47 9 55 11 125 29 33 8 69 17 79
20 68 16 242 86 303 121 24 14 46 24 49 23 4 0 10 3 13 8 3 5 24 20 46 33 22
13 45 28 50 32 199 152 256 209 353 353 92 137 138 252 167 415 29 161 26 296
-10 473 -10 49 -57 192 -67 205 -6 6 -8 12 -4 12 3 0 -6 20 -20 45 -13 25 -22
45 -18 45 4 0 0 8 -8 18 -8 9 -18 24 -22 32 -15 33 -58 97 -101 150 -25 31
-173 178 -204 203 -112 90 -264 185 -358 225 -78 33 -107 45 -118 48 -5 1 -44
11 -85 23 -41 11 -88 22 -105 25 -99 15 -207 28 -260 31 -22 2 -76 6 -120 10
-108 10 -214 13 -445 14 -195 0 -276 -1 -640 -14 -107 -4 -1554 -8 -3215 -8
l-3020 -2 -1 -40 c-3 -76 -43 -70 446 -70 l440 1 1 -196 c0 -231 0 -5237 -1
-5262 0 -15 -23 -16 -251 -15 l-250 2 -40 105 c-22 58 -47 117 -55 133 -8 15
-13 27 -10 27 3 0 -2 17 -11 38 -8 20 -20 48 -26 62 -6 14 -11 27 -12 30 -7
27 -19 60 -30 85 -8 17 -35 86 -61 155 -25 69 -51 136 -57 150 -6 14 -11 27
-11 30 -1 3 -11 30 -23 60 -11 30 -35 93 -53 140 -18 47 -36 94 -40 105 -4 11
-13 36 -20 55 -6 19 -19 49 -28 65 -9 17 -15 30 -13 30 2 0 -4 17 -13 39 -9
21 -16 42 -16 45 0 4 -18 52 -39 107 -49 125 -167 433 -191 499 -10 28 -27 73
-38 100 -10 28 -40 104 -65 170 -25 66 -51 134 -58 150 -7 17 -13 35 -15 40
-1 6 -35 93 -74 195 -40 102 -73 190 -74 195 -2 6 -8 21 -13 35 -18 41 -114
294 -117 305 -2 6 -9 24 -15 40 -7 17 -14 35 -15 40 -2 6 -8 21 -14 35 -19 43
-62 156 -62 164 0 5 -6 22 -14 39 -8 18 -33 82 -56 142 -23 61 -59 155 -80
210 -21 55 -41 109 -46 120 -4 11 -15 40 -24 65 -77 207 -94 250 -111 287 -10
24 -19 45 -19 49 0 3 -18 54 -41 112 -23 59 -56 145 -74 192 -17 47 -36 94
-40 105 -4 11 -9 25 -11 30 -3 13 -172 454 -184 480 -5 11 -23 58 -40 105 -17
47 -35 94 -40 105 -5 11 -27 67 -49 125 l-40 105 -100 2 c-99 1 -101 1 -107
-23z m9021 -196 c6 -3 35 -9 66 -12 65 -8 71 -9 162 -30 38 -9 103 -32 145
-53 42 -20 79 -37 82 -37 16 -3 122 -81 161 -119 142 -134 259 -373 294 -597
22 -143 27 -207 28 -385 1 -149 -6 -297 -18 -375 -10 -69 -18 -110 -31 -165
-8 -33 -17 -70 -19 -83 -16 -68 -97 -239 -143 -302 -98 -132 -264 -248 -392
-275 -8 -2 -15 -4 -15 -5 0 -2 -21 -7 -115 -26 -71 -14 -161 -17 -542 -19
l-458 -3 0 1233 c0 771 4 1236 10 1240 5 3 44 8 87 12 43 3 79 6 81 8 6 5 608
-1 617 -7z"/>
<path d="M4117 9364 c-1 -1 -24 -5 -52 -9 -76 -10 -170 -60 -234 -124 -31 -31
-62 -67 -69 -80 -8 -13 -22 -39 -32 -57 -61 -107 -57 -357 7 -435 7 -8 13 -21
13 -27 0 -22 128 -140 181 -165 88 -43 140 -55 236 -52 99 3 176 26 254 75
138 89 221 249 211 405 -2 33 -4 72 -5 88 -1 15 -5 27 -9 27 -5 0 -8 8 -8 19
0 22 -60 141 -72 141 -4 0 -8 5 -8 10 0 23 -109 110 -173 139 -59 27 -225 58
-240 45z"/>
<path d="M18148 9365 c-2 -2 -26 -5 -55 -9 -64 -7 -147 -39 -193 -74 -106 -79
-182 -201 -194 -312 -1 -9 -4 -20 -7 -25 -3 -6 -5 -41 -3 -80 7 -208 151 -386
354 -440 115 -30 289 0 388 68 136 92 205 219 206 377 0 118 -15 177 -67 264
-59 100 -160 177 -277 209 -51 14 -146 28 -152 22z"/>
<path d="M11249 8061 c-61 -19 -102 -53 -121 -101 -13 -30 -10 -97 4 -125 17
-32 72 -79 124 -105 27 -14 51 -27 54 -30 3 -4 19 -12 36 -19 40 -16 97 -72
105 -102 15 -61 -39 -109 -126 -114 -64 -3 -133 32 -159 80 -11 19 -25 35 -33
35 -47 0 2 -92 69 -130 55 -31 165 -33 223 -3 112 58 132 178 44 262 -18 17
-35 31 -40 31 -4 0 -14 6 -21 13 -7 6 -31 21 -53 32 -22 10 -68 37 -102 59
-51 33 -64 46 -69 73 -12 64 38 105 127 106 60 0 97 -19 134 -70 16 -23 35
-42 42 -42 52 -3 -11 105 -78 133 -44 18 -127 27 -160 17z"/>
<path d="M11855 7988 c-93 -200 -146 -314 -155 -330 -6 -10 -10 -25 -10 -33 0
-8 -4 -15 -9 -15 -5 0 -12 -12 -16 -27 -3 -15 -10 -30 -13 -33 -4 -3 -17 -28
-28 -57 -21 -51 -18 -67 14 -56 12 5 82 140 82 160 0 5 8 18 18 29 16 17 32
19 146 18 98 -1 130 -4 137 -15 5 -8 26 -53 46 -101 37 -85 39 -86 77 -90 22
-2 40 1 43 8 2 6 -18 58 -45 115 -27 57 -56 121 -65 141 -26 57 -90 194 -132
286 -21 45 -41 82 -45 82 -3 0 -24 -37 -45 -82z m63 -141 c19 -39 43 -88 53
-108 10 -20 19 -41 19 -46 0 -12 -208 -14 -216 -2 -5 9 96 229 106 229 3 0 20
-33 38 -73z"/>
<path d="M13057 8064 c-2 -2 -14 -6 -28 -8 -13 -2 -24 -5 -24 -6 0 -1 -8 -3
-18 -5 -61 -11 -159 -108 -187 -183 -47 -126 -21 -245 76 -343 72 -75 208
-114 299 -87 17 5 35 10 40 12 26 6 83 39 110 64 110 98 139 255 72 387 -37
74 -132 146 -212 161 -40 7 -123 12 -128 8z m145 -50 c41 -21 79 -63 102 -113
16 -36 21 -68 22 -151 1 -57 -2 -111 -6 -120 -5 -8 -15 -31 -24 -50 -51 -112
-177 -156 -288 -100 -48 24 -81 64 -109 130 -23 56 -18 233 8 291 31 70 85
116 146 126 61 11 112 6 149 -13z"/>
<path d="M15515 8054 c-27 -8 -54 -16 -60 -17 -46 -13 -155 -115 -155 -146 0
-6 -5 -11 -12 -11 -6 0 -9 -2 -6 -6 3 -3 0 -25 -7 -49 -30 -96 5 -224 82 -302
38 -38 123 -92 123 -77 0 4 7 1 15 -6 20 -17 132 -19 177 -4 20 7 39 10 42 7
3 -4 6 0 6 7 0 7 3 11 6 7 9 -9 87 46 119 85 41 49 78 142 77 193 -1 52 -16
113 -36 152 -25 49 -90 123 -108 123 -5 0 -22 8 -36 19 -49 34 -154 46 -227
25z m143 -28 c29 -6 104 -61 95 -69 -3 -4 -2 -7 4 -7 11 0 30 -37 48 -96 15
-51 12 -209 -5 -229 -7 -8 -10 -15 -6 -15 3 0 -4 -18 -15 -40 -22 -42 -72 -90
-94 -90 -7 0 -15 -5 -17 -11 -6 -19 -128 -15 -168 6 -105 54 -155 195 -127
358 13 75 70 167 103 167 8 0 14 4 14 9 0 21 105 31 168 17z"/>
<path d="M16190 8057 c-122 -32 -163 -165 -80 -260 15 -18 68 -54 117 -80 148
-80 163 -93 170 -148 5 -34 2 -42 -27 -69 -33 -30 -50 -35 -129 -31 -59 2
-115 40 -138 93 -8 19 -17 26 -28 22 -51 -20 41 -138 118 -152 157 -29 266 35
275 159 l4 59 -48 48 c-27 26 -74 61 -104 77 -30 16 -68 36 -84 44 -17 9 -39
24 -50 34 -11 9 -23 17 -27 17 -3 0 -13 14 -22 31 -40 84 66 150 181 111 31
-10 53 -27 74 -56 16 -22 34 -41 39 -40 25 3 28 5 21 22 -20 48 -50 84 -87
102 -47 23 -125 30 -175 17z"/>
<path d="M19398 8044 c-31 -12 -73 -34 -93 -50 -39 -29 -98 -109 -98 -131 0
-7 -3 -13 -7 -13 -8 0 -8 -2 -13 -95 -5 -80 9 -128 55 -196 117 -173 399 -179
514 -10 22 32 22 35 6 47 -15 11 -23 6 -61 -37 -54 -62 -105 -89 -168 -88
-118 1 -219 87 -241 203 -33 176 62 324 219 343 71 8 127 -16 187 -82 39 -42
52 -51 65 -43 22 12 9 39 -42 87 -87 82 -214 107 -323 65z"/>
<path d="M12338 8052 l-38 -3 0 -305 0 -304 28 -1 c118 -2 181 -1 190 5 6 3
13 3 15 -1 4 -7 58 -7 102 -2 6 1 15 0 20 -1 6 -1 18 -2 28 -1 14 1 16 5 7 20
-8 15 -21 19 -62 19 -29 0 -57 1 -63 2 -5 1 -14 1 -20 0 -25 -6 -146 -2 -153
4 -4 4 -7 133 -7 286 0 153 -3 280 -5 282 -3 2 -22 2 -42 0z"/>
<path d="M15105 8050 c-17 -7 -118 -87 -200 -158 -72 -63 -127 -104 -132 -99
-3 3 -5 62 -5 131 l1 126 -43 0 -42 0 0 -304 0 -304 38 -4 c28 -3 39 1 42 12
3 8 5 69 4 135 0 66 1 130 1 143 l1 23 24 -23 c13 -13 45 -41 71 -63 26 -22
57 -49 69 -60 167 -151 188 -167 237 -169 77 -4 70 10 -57 121 -35 30 -206
186 -231 211 l-24 24 23 22 c13 13 68 60 123 106 142 119 149 126 133 132 -7
3 -22 2 -33 -2z"/>
<path d="M16636 8045 c-8 -8 -11 -98 -10 -301 1 -159 2 -292 3 -296 0 -5 11
-8 24 -8 l22 0 -3 250 c-1 137 1 250 6 250 4 0 16 -20 26 -45 11 -25 23 -45
28 -45 4 0 7 -3 6 -7 -2 -12 13 -46 30 -65 8 -10 12 -18 7 -18 -4 0 -2 -6 4
-14 6 -7 44 -78 85 -157 40 -79 79 -144 86 -144 7 0 41 56 76 125 35 69 67
130 71 135 5 6 19 35 33 65 14 30 28 57 33 58 4 2 7 9 7 15 0 7 11 30 24 51
l23 39 -1 -238 c-1 -169 2 -242 11 -250 14 -14 73 -7 74 9 0 6 1 143 2 304 l2
292 -45 0 -45 0 -68 -132 c-38 -73 -79 -151 -92 -174 -13 -23 -37 -69 -55
-102 -18 -34 -35 -60 -38 -58 -4 3 -59 108 -122 234 l-115 230 -39 4 c-21 2
-44 -1 -50 -7z"/>
<path d="M17551 8050 l-65 -5 1 -298 c0 -164 3 -301 7 -304 3 -4 77 -6 164 -5
259 1 241 0 238 20 -3 15 -17 17 -139 17 -76 0 -137 4 -137 9 0 5 -6 4 -13 -2
-27 -23 -34 3 -34 136 l-1 132 37 1 c20 1 69 1 109 0 65 0 72 2 72 19 0 16 -7
20 -32 21 -18 0 -67 2 -108 2 l-75 2 -1 107 -2 108 161 2 c144 3 160 5 163 21
2 14 -6 17 -54 17 -32 1 -95 2 -142 3 -47 1 -114 0 -149 -3z"/>
<path d="M18075 8052 c-93 -3 -123 -12 -109 -34 3 -4 54 -8 115 -8 l109 0 0
-284 c0 -312 -2 -300 60 -286 l26 5 -1 280 0 280 110 5 c95 4 110 7 113 23 2
13 -4 17 -25 17 -15 0 -89 2 -163 3 -74 1 -180 1 -235 -1z"/>
<path d="M19940 8050 c-58 -4 -75 -8 -75 -20 0 -13 32 -16 212 -20 l212 -5
-101 -130 c-55 -71 -109 -143 -121 -158 -12 -16 -27 -34 -32 -40 -34 -38 -164
-214 -167 -226 -2 -11 44 -13 257 -13 143 1 269 1 280 1 13 1 21 8 22 20 1 17
-6 19 -65 21 -37 1 -71 1 -77 1 -83 -6 -265 -4 -265 3 0 5 -7 3 -15 -4 -28
-24 -15 2 33 64 47 60 111 142 188 242 21 28 76 99 121 157 l82 107 -72 0
c-40 1 -133 2 -207 3 -74 1 -169 0 -210 -3z"/>
<path d="M21168 8050 l-36 -5 83 -120 c176 -251 162 -219 160 -360 0 -66 3
-122 7 -126 4 -3 24 -3 43 -1 l35 4 0 125 0 125 82 121 c46 67 85 124 88 127
3 3 14 19 24 35 11 17 26 40 34 53 14 21 13 22 -14 22 -25 -1 -35 -11 -69 -65
-22 -36 -44 -65 -48 -65 -5 0 -5 -4 -2 -10 3 -5 2 -10 -3 -10 -4 0 -30 -34
-57 -76 -27 -41 -52 -77 -56 -79 -4 -3 -54 65 -113 150 -58 84 -109 155 -114
157 -4 2 -24 1 -44 -2z"/>
<path d="M13583 7745 l0 -305 23 0 24 0 0 243 1 242 32 -35 c17 -20 57 -64 87
-99 67 -78 128 -147 155 -177 11 -12 40 -46 65 -75 61 -72 110 -122 116 -116
5 5 6 63 5 410 l-1 217 -23 0 -22 0 1 -225 c0 -124 -1 -225 -4 -225 -3 0 -52
52 -105 114 -47 54 -164 182 -184 202 -13 12 -23 24 -23 27 0 3 -22 28 -49 56
-33 34 -57 51 -74 51 l-25 0 1 -305z"/>
<path d="M18540 8045 c0 -2 27 -43 60 -90 33 -47 60 -90 60 -95 0 -6 3 -10 8
-10 4 0 20 -21 37 -48 16 -26 32 -49 35 -52 3 -3 13 -18 23 -33 15 -24 18 -47
15 -153 l-3 -124 38 0 c20 0 40 1 44 3 4 1 8 58 8 127 0 117 2 128 25 160 13
19 28 37 32 38 4 2 8 8 8 13 0 9 37 66 50 79 3 3 23 33 45 67 22 35 43 63 48
63 4 0 7 5 7 12 0 6 7 20 17 30 15 17 15 18 -14 18 -25 0 -36 -9 -69 -57 -21
-32 -42 -59 -46 -61 -5 -2 -8 -8 -8 -14 0 -9 -57 -96 -71 -108 -3 -3 -14 -20
-24 -37 -11 -18 -22 -33 -25 -33 -3 1 -34 44 -70 98 -36 53 -67 99 -70 102 -3
3 -21 29 -40 57 -33 49 -37 52 -77 53 -24 0 -43 -2 -43 -5z"/>
<path d="M20525 7745 l0 -305 25 0 25 0 -1 239 c0 178 3 238 11 233 7 -4 43
-43 81 -87 38 -44 73 -85 79 -91 5 -6 35 -39 65 -74 30 -35 64 -74 75 -86 11
-13 38 -44 60 -70 22 -26 48 -56 58 -67 9 -11 20 -17 25 -13 4 4 7 147 8 317
l0 309 -23 0 -23 0 1 -221 c0 -122 -2 -223 -4 -225 -2 -2 -29 24 -59 58 -31
35 -67 75 -80 89 -12 14 -52 58 -88 99 -36 41 -89 99 -117 129 -29 31 -53 59
-53 64 0 4 -15 7 -32 7 l-33 0 0 -305z"/>
</g>
</svg>
